<svg width="22" height="22" viewBox="0 0 22 22" fill="none" xmlns="http://www.w3.org/2000/svg">
<path d="M11.8461 9.8718C11.8461 9.40448 11.4673 9.02564 11 9.02564C10.5327 9.02564 10.1538 9.40448 10.1538 9.8718V16.641C10.1538 17.1083 10.5327 17.4872 11 17.4872C11.4673 17.4872 11.8461 17.1083 11.8461 16.641V9.8718Z" fill="#1F50FB"/>
<path fill-rule="evenodd" clip-rule="evenodd" d="M16.0358 0.139591C14.7472 -1.63913e-05 13.123 -9.06344e-06 11.0511 1.49303e-07H10.9489C8.87696 -9.06344e-06 7.25279 -1.63913e-05 5.96423 0.139591C4.64926 0.282058 3.58381 0.578007 2.67411 1.23894C2.12338 1.63907 1.63907 2.12338 1.23894 2.67411C0.578007 3.58381 0.282058 4.64926 0.139591 5.96423C-1.63913e-05 7.25279 -9.06343e-06 8.87696 1.49304e-07 10.9489V11.0511C-9.06343e-06 13.123 -1.63913e-05 14.7472 0.139591 16.0358C0.282058 17.3507 0.578007 18.4162 1.23894 19.3259C1.63907 19.8766 2.12338 20.3609 2.67411 20.7611C3.58381 21.422 4.64927 21.7179 5.96423 21.8604C7.25277 22 8.8769 22 10.9488 22H11.0511C13.123 22 14.7472 22 16.0358 21.8604C17.3507 21.7179 18.4162 21.422 19.3259 20.7611C19.8766 20.3609 20.3609 19.8766 20.7611 19.3259C21.422 18.4162 21.7179 17.3507 21.8604 16.0358C22 14.7472 22 13.1231 22 11.0512V10.9489C22 8.87699 22 7.25277 21.8604 5.96423C21.7179 4.64927 21.422 3.58381 20.7611 2.67411C20.3609 2.12338 19.8766 1.63907 19.3259 1.23894C18.4162 0.578007 17.3507 0.282058 16.0358 0.139591ZM3.66883 2.60805C4.24196 2.19164 4.97554 1.94892 6.14651 1.82205C7.33333 1.69347 8.86592 1.69231 11 1.69231C13.1341 1.69231 14.6667 1.69347 15.8535 1.82205C17.0245 1.94892 17.758 2.19164 18.3312 2.60805C18.7382 2.90379 19.0962 3.26177 19.392 3.66883C19.8084 4.24196 20.0511 4.97554 20.1779 6.14651C20.3065 7.33333 20.3077 8.86592 20.3077 11C20.3077 13.1341 20.3065 14.6667 20.1779 15.8535C20.0511 17.0245 19.8084 17.758 19.392 18.3312C19.0962 18.7382 18.7382 19.0962 18.3312 19.392C17.758 19.8084 17.0245 20.0511 15.8535 20.1779C14.6667 20.3065 13.1341 20.3077 11 20.3077C8.86592 20.3077 7.33333 20.3065 6.14651 20.1779C4.97554 20.0511 4.24196 19.8084 3.66883 19.392C3.26177 19.0962 2.90379 18.7382 2.60805 18.3312C2.19164 17.758 1.94892 17.0245 1.82205 15.8535C1.69347 14.6667 1.69231 13.1341 1.69231 11C1.69231 8.86592 1.69347 7.33333 1.82205 6.14651C1.94892 4.97554 2.19164 4.24196 2.60805 3.66883C2.90379 3.26177 3.26177 2.90379 3.66883 2.60805Z" fill="#1F50FB"/>
<path d="M12.1282 6.48718C12.1282 7.11027 11.6231 7.61538 11 7.61538C10.3769 7.61538 9.87179 7.11027 9.87179 6.48718C9.87179 5.86409 10.3769 5.35897 11 5.35897C11.6231 5.35897 12.1282 5.86409 12.1282 6.48718Z" fill="#1F50FB"/>
</svg>
